<svg xmlns="http://www.w3.org/2000/svg" width="229.71" height="21.24" viewBox="0 0 229.71 21.24">
  <path id="Path_106" data-name="Path 106" d="M-100.26-17.58c-1.47-2.28-3.78-3.39-7.08-3.39-4.86,0-6.9,2.61-6.9,5.73,0,3.51,2.25,5.43,6.24,6.27,3.6.78,4.53,1.8,4.53,3.45,0,1.5-.9,2.76-3.75,2.76a5.542,5.542,0,0,1-4.83-2.25l-2.73,1.89c1.71,2.31,4.2,3.39,7.74,3.39,4.98,0,7.05-2.85,7.05-5.94,0-3.72-2.16-5.28-6.33-6.18-2.88-.63-4.44-1.41-4.44-3.39,0-1.74,1.26-2.7,3.39-2.7a4.827,4.827,0,0,1,4.47,2.25Zm21.21,3.3c-.69-4.5-3.42-6.69-7.53-6.69-4.62,0-7.74,2.79-7.74,9.3v2.64c0,6.51,3.12,9.3,7.74,9.3,4.11,0,6.81-2.04,7.5-6.69h-3.33c-.54,2.52-1.8,3.66-4.17,3.66-2.76,0-4.26-1.86-4.26-6.27v-2.64c0-4.47,1.5-6.27,4.26-6.27,2.28,0,3.63,1.14,4.17,3.66Zm9.66-6.42h-3.48V0h3.48V-9.21h7.92V0h3.48V-20.7h-3.48v8.49h-7.92ZM-35.76-9.03v-2.64c0-6.51-3.12-9.3-7.77-9.3-4.62,0-7.74,2.79-7.74,9.3v2.64c0,6.51,3.12,9.3,7.74,9.3C-38.88.27-35.76-2.52-35.76-9.03Zm-12.03-2.64c0-4.47,1.5-6.27,4.26-6.27s4.29,1.8,4.29,6.27v2.64c0,4.47-1.53,6.27-4.29,6.27s-4.26-1.8-4.26-6.27Zm33.42,2.64v-2.64c0-6.51-3.12-9.3-7.77-9.3-4.62,0-7.74,2.79-7.74,9.3v2.64c0,6.51,3.12,9.3,7.74,9.3C-17.49.27-14.37-2.52-14.37-9.03ZM-26.4-11.67c0-4.47,1.5-6.27,4.26-6.27s4.29,1.8,4.29,6.27v2.64c0,4.47-1.53,6.27-4.29,6.27s-4.26-1.8-4.26-6.27ZM-4.17-20.7H-7.65V0H5.04V-3H-4.17Zm38.52,3.12c-1.47-2.28-3.78-3.39-7.08-3.39-4.86,0-6.9,2.61-6.9,5.73,0,3.51,2.25,5.43,6.24,6.27,3.6.78,4.53,1.8,4.53,3.45,0,1.5-.9,2.76-3.75,2.76a5.542,5.542,0,0,1-4.83-2.25L19.83-3.12C21.54-.81,24.03.27,27.57.27c4.98,0,7.05-2.85,7.05-5.94,0-3.72-2.16-5.28-6.33-6.18-2.88-.63-4.44-1.41-4.44-3.39,0-1.74,1.26-2.7,3.39-2.7a4.827,4.827,0,0,1,4.47,2.25Zm4.41-3.12v3.03h5.97V0h3.48V-17.67h5.94V-20.7ZM74.19-9.03v-2.64c0-6.51-3.12-9.3-7.77-9.3-4.62,0-7.74,2.79-7.74,9.3v2.64c0,6.51,3.12,9.3,7.74,9.3C71.07.27,74.19-2.52,74.19-9.03ZM62.16-11.67c0-4.47,1.5-6.27,4.26-6.27s4.29,1.8,4.29,6.27v2.64c0,4.47-1.53,6.27-4.29,6.27s-4.26-1.8-4.26-6.27ZM96.24,0,91.83-8.97a5.405,5.405,0,0,0,3.75-5.55c0-4.11-2.85-6.18-7.62-6.18H80.91V0h3.48V-8.4h4.02L92.4,0ZM84.39-11.4v-6.27h3.33c2.94,0,4.38.81,4.38,3.15s-1.44,3.12-4.38,3.12Zm17.85-9.3V0h12.69V-3h-9.21V-9.21h8.31v-3h-8.31v-5.46h9.21V-20.7Z" transform="translate(114.78 20.97)"/>
</svg>
