<svg xmlns="http://www.w3.org/2000/svg" width="22.423" height="22.418" viewBox="0 0 22.423 22.418">
  <path id="Icon_awesome-instagram" data-name="Icon awesome-instagram" d="M11.209,7.7a5.748,5.748,0,1,0,5.748,5.748A5.739,5.739,0,0,0,11.209,7.7Zm0,9.484a3.737,3.737,0,1,1,3.737-3.737,3.744,3.744,0,0,1-3.737,3.737Zm7.324-9.72a1.341,1.341,0,1,1-1.341-1.341A1.338,1.338,0,0,1,18.532,7.464Zm3.807,1.361a6.634,6.634,0,0,0-1.811-4.7,6.678,6.678,0,0,0-4.7-1.811c-1.851-.105-7.4-.105-9.249,0a6.669,6.669,0,0,0-4.7,1.806A6.656,6.656,0,0,0,.074,8.82c-.105,1.851-.105,7.4,0,9.249a6.634,6.634,0,0,0,1.811,4.7,6.687,6.687,0,0,0,4.7,1.811c1.851.105,7.4.105,9.249,0a6.635,6.635,0,0,0,4.7-1.811,6.678,6.678,0,0,0,1.811-4.7c.105-1.851.105-7.394,0-9.244Zm-2.391,11.23a3.783,3.783,0,0,1-2.131,2.131c-1.476.585-4.977.45-6.608.45s-5.137.13-6.608-.45A3.783,3.783,0,0,1,2.47,20.055c-.585-1.476-.45-4.977-.45-6.608s-.13-5.137.45-6.608A3.783,3.783,0,0,1,4.6,4.708c1.476-.585,4.977-.45,6.608-.45s5.137-.13,6.608.45a3.783,3.783,0,0,1,2.131,2.131c.585,1.476.45,4.977.45,6.608S20.533,18.584,19.948,20.055Z" transform="translate(0.005 -2.238)"/>
</svg>
