<svg xmlns="http://www.w3.org/2000/svg" width="25.609" height="19.21" viewBox="0 0 25.609 19.21">
  <path id="Icon_ionic-logo-youtube" data-name="Icon ionic-logo-youtube" d="M25.442,8.742a3.889,3.889,0,0,0-3.7-4.062c-2.771-.13-5.6-.18-8.484-.18h-.9c-2.881,0-5.713.05-8.484.18a3.9,3.9,0,0,0-3.7,4.072C.05,10.533-.005,12.314,0,14.095s.05,3.562.17,5.348a3.9,3.9,0,0,0,3.7,4.077c2.911.135,5.9.2,8.934.19q4.562.015,8.934-.19a3.9,3.9,0,0,0,3.7-4.077c.12-1.786.175-3.567.17-5.353Q25.622,11.418,25.442,8.742ZM10.355,19V9.172l7.254,4.912Z" transform="translate(0 -4.5)"/>
</svg>
