<svg xmlns="http://www.w3.org/2000/svg" width="22.411" height="22.411" viewBox="0 0 22.411 22.411">
  <path id="Icon_awesome-facebook-square" data-name="Icon awesome-facebook-square" d="M20.01,2.25H2.4A2.4,2.4,0,0,0,0,4.651V22.259a2.4,2.4,0,0,0,2.4,2.4H9.267V17.042H6.115V13.455H9.267V10.722c0-3.109,1.851-4.826,4.686-4.826a19.093,19.093,0,0,1,2.777.242V9.189H15.166a1.793,1.793,0,0,0-2.022,1.937v2.329h3.441l-.55,3.586h-2.89v7.619H20.01a2.4,2.4,0,0,0,2.4-2.4V4.651a2.4,2.4,0,0,0-2.4-2.4Z" transform="translate(0 -2.25)"/>
</svg>
