<svg xmlns="http://www.w3.org/2000/svg" width="40" height="40" viewBox="0 0 40 40">
  <g id="Group_77" data-name="Group 77" transform="translate(-201 -4341)">
    <circle id="Ellipse_17" data-name="Ellipse 17" cx="20" cy="20" r="20" transform="translate(201 4341)" fill="#f0d879"/>
    <path id="Path_105" data-name="Path 105" d="M7.5-9.21v-2.28c0-6.69-2.91-9.45-7.5-9.45s-7.5,2.76-7.5,9.45v2.28C-7.5-2.52-4.59.24,0,.24A7.067,7.067,0,0,0,4.98-1.44L7.47.87,9.06-.81,6.36-3.36A13.24,13.24,0,0,0,7.5-9.21ZM-4.92-11.49c0-5.13,1.74-7.11,4.92-7.11s4.92,1.98,4.92,7.11v2.28a13.3,13.3,0,0,1-.51,3.99L1.8-7.71.15-5.97l3,2.82A4.548,4.548,0,0,1,0-2.1c-3.18,0-4.92-1.98-4.92-7.11Z" transform="translate(221 4371)"/>
  </g>
</svg>
