<svg xmlns="http://www.w3.org/2000/svg" width="107.531" height="40.652" viewBox="0 0 107.531 40.652">
  <path id="Path_107" data-name="Path 107" d="M1.676,0V-16.395H6.867a5.35,5.35,0,0,1,3.738,1.266A4.364,4.364,0,0,1,12-11.73,4.546,4.546,0,0,1,11.285-9.2,4.088,4.088,0,0,1,9.328-7.6a9.959,9.959,0,0,1-3.562.5H4.031V0ZM6.457-14.309H4.031v5.121H6.6a3.252,3.252,0,0,0,2.2-.674,2.419,2.419,0,0,0,.773-1.928Q9.574-14.309,6.457-14.309Zm9.982-2.062h2.344V-2.133h7.371V0H16.439Zm19.392-.094h1.652L44.808,0h-2.4l-2.18-4.852H33.265L31.2,0H28.8Zm3.434,9.527-2.637-5.93-2.449,5.93ZM62.02-16.371h2.227V0H62.231L51.286-12.6V0h-2.2V-16.371h1.9L62.02-3.668Zm6.736-.023H82.432v2.086H76.725V0H74.37V-14.309H68.756ZM5.859,17.133,4.078,16.055a8.054,8.054,0,0,1-2.385-2.01,3.815,3.815,0,0,1-.709-2.279A4.027,4.027,0,0,1,2.326,8.625,5.014,5.014,0,0,1,5.813,7.418,6.608,6.608,0,0,1,9.574,8.566v2.66a5.428,5.428,0,0,0-3.809-1.7,3.143,3.143,0,0,0-1.887.533,1.62,1.62,0,0,0-.738,1.365,2.118,2.118,0,0,0,.539,1.383,6.661,6.661,0,0,0,1.746,1.348l1.793,1.055q3,1.781,3,4.547a4.176,4.176,0,0,1-1.318,3.2,4.822,4.822,0,0,1-3.428,1.23A7.209,7.209,0,0,1,1.055,22.7V19.723a5.518,5.518,0,0,0,4.395,2.4,2.754,2.754,0,0,0,1.834-.615,1.931,1.931,0,0,0,.732-1.541Q8.016,18.469,5.859,17.133ZM29.306,20.2v2.578a12.234,12.234,0,0,1-5.953,1.406,9.173,9.173,0,0,1-4.652-1.1,8.111,8.111,0,0,1-3.023-3.035,8.242,8.242,0,0,1-1.113-4.184,7.989,7.989,0,0,1,2.549-6.012A8.748,8.748,0,0,1,23.4,7.418a14.748,14.748,0,0,1,5.73,1.348v2.52a11.28,11.28,0,0,0-5.613-1.641,6.489,6.489,0,0,0-4.67,1.775,5.9,5.9,0,0,0-1.857,4.447,5.838,5.838,0,0,0,1.828,4.43,6.519,6.519,0,0,0,4.676,1.734A10.605,10.605,0,0,0,29.306,20.2ZM46.132,7.629h2.344V24H46.132V16.875h-9.2V24H34.589V7.629h2.344v7.078h9.2Zm16.392-.234a8.812,8.812,0,0,1,6.322,2.4,7.966,7.966,0,0,1,2.525,6.023,7.839,7.839,0,0,1-2.549,5.994A9.065,9.065,0,0,1,62.4,24.188a8.547,8.547,0,0,1-6.17-2.373,7.909,7.909,0,0,1-2.467-5.947A8.086,8.086,0,0,1,56.243,9.8,8.669,8.669,0,0,1,62.524,7.395Zm.094,2.227a6.363,6.363,0,0,0-4.623,1.758,5.985,5.985,0,0,0-1.811,4.488A5.877,5.877,0,0,0,58,20.273a6.748,6.748,0,0,0,9.123-.035,5.99,5.99,0,0,0,1.834-4.465A5.851,5.851,0,0,0,67.124,11.4,6.23,6.23,0,0,0,62.618,9.621ZM84.682,7.395A8.812,8.812,0,0,1,91,9.8,7.966,7.966,0,0,1,93.53,15.82a7.839,7.839,0,0,1-2.549,5.994,9.065,9.065,0,0,1-6.428,2.373,8.547,8.547,0,0,1-6.17-2.373,7.909,7.909,0,0,1-2.467-5.947A8.086,8.086,0,0,1,78.4,9.8,8.669,8.669,0,0,1,84.682,7.395Zm.094,2.227a6.363,6.363,0,0,0-4.623,1.758,5.985,5.985,0,0,0-1.811,4.488,5.877,5.877,0,0,0,1.816,4.406,6.748,6.748,0,0,0,9.123-.035,5.99,5.99,0,0,0,1.834-4.465A5.851,5.851,0,0,0,89.282,11.4,6.23,6.23,0,0,0,84.776,9.621ZM98.8,7.629h2.344V21.867h7.371V24H98.8Z" transform="translate(-0.984 16.465)" fill="#0d0d0d"/>
</svg>
